<svg xmlns="http://www.w3.org/2000/svg" width="98" height="51" viewBox="0 0 98 51">
  <defs>
    <style>
      .cls-1 {
        fill-rule: evenodd;
      }
    </style>
  </defs>
  <path class="cls-1" d="M15.036,2.946V0.084H0.41V23.612H3.59V13.438h8.267V10.576H3.59V3.263Z"/>
  <path class="cls-1" d="M22.666,23.294h2.861V0.4H20.759V2.946h1.908V23.294ZM34.43,8.986v-8.9h7.949s6.379,1.769,6.677,6.359c0,0,1.848,6.22-5.405,9.22l6.995,6.995H46.512l-9.22-9.22H42.7s4.153-2.206,3.5-5.405a5.212,5.212,0,0,0-3.5-4.769H37.292V8.986H34.43Z"/>
  <path class="cls-1" d="M60.184,15.663l-2.861,1.272s-0.06,5.345,6.041,6.995c0,0,6.935.815,8.584-6.041a7.323,7.323,0,0,0-3.5-7.949,41.475,41.475,0,0,0-4.133-1.59s-3.08-1.888-1.59-4.451c0,0,3.358-2.683,4.769,1.272l2.862-.954S69.345,0.1,65.271-.234a6.283,6.283,0,0,0-5.723,3.179s-1.729,5.425,2.861,7.313c0,0,6.14,2.643,6.041,4.133,0,0,1.927,4.471-2.226,6.359C66.225,20.75,60.979,22.5,60.184,15.663Z"/>
  <path class="cls-1" d="M86.255,23.612h3.179V2.946h7.949V0.084H77.353V2.946h8.9V23.612Z"/>
  <path class="cls-1" d="M16.307,46.822l1.272,1.272a10.355,10.355,0,0,1-8.267,3.179S0.43,50.419-.226,41.1c0,0-.139-8.326,8.267-10.492a12.529,12.529,0,0,1,9.538,2.544l-1.272,1.272s-4.113-3.08-8.267-1.908c0,0-6.577,1.848-6.359,8.267,0,0,.1,7.094,6.677,8.267A8.6,8.6,0,0,0,16.307,46.822Z"/>
  <path id="Shape_5_copy" data-name="Shape 5 copy" class="cls-1" d="M76.081,46.5l1.272,1.272a10.355,10.355,0,0,1-8.266,3.179S60.2,50.1,59.548,40.781c0,0-.139-8.326,8.267-10.492a12.528,12.528,0,0,1,9.538,2.543L76.081,34.1s-4.113-3.08-8.266-1.908c0,0-6.578,1.848-6.359,8.267,0,0,.1,7.094,6.677,8.267A8.6,8.6,0,0,0,76.081,46.5Z"/>
  <path class="cls-1" d="M24.256,37.6h-1.59l-0.318-6.995h7.631s5.584,1.769,5.087,6.995a6.594,6.594,0,0,1-5.723,6.359L35.7,50.637l-2.861.318-7.949-8.584h4.769a5.492,5.492,0,0,0,3.5-5.087s-0.3-3.955-3.5-4.769H24.256V37.6Z"/>
  <path class="cls-1" d="M42.379,50.637h-1.59L48.42,29.971,56.05,50.637l-1.59.318L48.42,35.376Z"/>
  <path class="cls-1" d="M51.917,42.053H45.24L44.6,44.278h7.949Z"/>
  <path class="cls-1" d="M86.255,50.319H84.03V30.289h1.908L86.255,41.1l9.856-10.81h1.908L88.481,40.781l9.22,9.538H95.158l-7.313-7.949-1.59,1.272v6.677Z"/>
</svg>
